Coordinates
version=1
nRows=8
nColumns=46
inDegrees=yes

Units are S.I. units (second, meters, Newtons, ...)
Angles are in degrees.

endheader
time	pelvis_tilt	pelvis_list	pelvis_rotation	pelvis_tx	pelvis_ty	pelvis_tz	bb_angle	bb_tx	bb_ty	bb_tz	hip_flexion_r	hip_adduction_r	hip_rotation_r	knee_angle_r	knee_angle_r_beta	ankle_angle_r	subtalar_angle_r	mtp_angle_r	crank_angle_r	hip_flexion_l	hip_adduction_l	hip_rotation_l	knee_angle_l	knee_angle_l_beta	ankle_angle_l	subtalar_angle_l	mtp_angle_l	crank_angle_l	lumbar_extension	lumbar_bending	lumbar_rotation	arm_flex_r	arm_add_r	arm_rot_r	elbow_flex_r	pro_sup_r	wrist_flex_r	wrist_dev_r	arm_flex_l	arm_add_l	arm_rot_l	elbow_flex_l	pro_sup_l	wrist_flex_l	wrist_dev_l
      2.50500000	    -15.47193239	     -1.80202995	     -0.90192481	      0.11011209	      1.11022953	     -0.24943133	      0.00000000	      0.50000000	      0.00000000	      0.25000000	     87.90478061	     -0.79515222	      2.32948901	    103.62885189	      1.80866467	     19.95285695	    -12.72387392	      0.00000000	      0.00000000	     44.73923146	     -3.89000436	      4.38399927	     45.12583073	      0.78759432	    -19.58314066	    -15.85088928	      0.00000000	      0.00000000	    -64.24674679	      2.32256977	      1.17505832	     89.32007744	    -11.31170063	     28.92868119	     53.43522576	     42.76568619	      0.00000000	      0.00000000	     88.21323651	    -16.62286731	     32.02626856	     55.01013422	     40.15049591	      0.00000000	      0.00000000
      2.51000000	    -15.57798582	     -1.79221648	     -0.90597625	      0.10972596	      1.10970871	     -0.24983645	      0.00000000	      0.50000000	      0.00000000	      0.25000000	     87.38945271	     -0.68029188	      2.30233367	    102.06296266	      1.78133474	     20.75744478	    -12.94657123	      0.00000000	      0.00000000	     45.31439003	     -3.60531970	      4.77428047	     46.88102494	      0.81822824	    -19.06682477	    -16.73879123	      0.00000000	      0.00000000	    -64.28415668	      2.49906614	      1.16088033	     89.33733456	    -11.28227728	     28.90180543	     53.81485360	     42.78120656	      0.00000000	      0.00000000	     88.23310512	    -16.76420036	     31.94541868	     55.10471650	     40.16536161	      0.00000000	      0.00000000
      2.51500000	    -15.87537048	     -2.18221825	     -0.81767593	      0.10923771	      1.10871193	     -0.25048924	      0.00000000	      0.50000000	      0.00000000	      0.25000000	     86.95449924	     -0.57889849	      1.87294680	    100.33581443	      1.75119032	     21.41202105	    -13.22175705	      0.00000000	      0.00000000	     46.26706764	     -3.59706771	      5.42781604	     48.85957798	      0.85276051	    -18.48852628	    -17.64773646	      0.00000000	      0.00000000	    -64.15072064	      3.12187564	      1.62043564	     89.35044648	    -11.35624441	     28.88020795	     54.74498072	     42.78452466	      0.00000000	      0.00000000	     88.07788795	    -17.09547119	     31.73251465	     55.53988305	     40.24564360	      0.00000000	      0.00000000
      2.52000000	    -15.88851443	     -2.08544800	     -0.82551393	      0.10897699	      1.10808918	     -0.25100327	      0.00000000	      0.50000000	      0.00000000	      0.25000000	     86.30139782	     -0.47321617	      1.93082422	     98.65849465	      1.72191557	     21.95572448	    -13.63770173	      0.00000000	      0.00000000	     46.73333957	     -3.25366353	      5.60738597	     50.65909174	      0.88416795	    -17.70302234	    -18.59138690	      0.00000000	      0.00000000	    -64.25454823	      3.23873484	      1.55216303	     89.36144940	    -11.39871342	     28.88216519	     55.09299048	     42.78454407	      0.00000000	      0.00000000	     88.08802010	    -17.21600548	     31.62162174	     55.67899812	     40.26988491	      0.00000000	      0.00000000
      2.52500000	    -16.01560939	     -2.33709352	     -0.81449977	      0.10867065	      1.10716513	     -0.25141659	      0.00000000	      0.50000000	      0.00000000	      0.25000000	     85.67411587	     -0.28802106	      1.62228460	     96.85864041	      1.69050218	     22.24915706	    -14.16709283	      0.00000000	      0.00000000	     47.46002224	     -3.21758904	      5.99840318	     52.63628584	      0.91867649	    -16.90882613	    -19.46416208	      0.00000000	      0.00000000	    -64.26395089	      3.60397080	      1.80458145	     89.37997488	    -11.40587445	     28.91897050	     55.75491088	     42.78748914	      0.00000000	      0.00000000	     87.96418161	    -17.48373942	     31.41461317	     56.00956087	     40.33091814	      0.00000000	      0.00000000
      2.53000000	    -16.09163243	     -2.44684082	     -0.80879100	      0.10842381	      1.10613929	     -0.25189204	      0.00000000	      0.50000000	      0.00000000	      0.25000000	     85.04802748	     -0.13817565	      1.48873839	     95.09287592	      1.65968378	     22.34213662	    -14.72781057	      0.00000000	      0.00000000	     48.12482074	     -3.09795752	      6.19242133	     54.62419791	      0.95337210	    -16.00879347	    -20.27703251	      0.00000000	      0.00000000	    -64.29702607	      3.85564730	      1.93229201	     89.38851710	    -11.48341011	     28.97768962	     56.36612406	     42.77012061	      0.00000000	      0.00000000	     87.85706065	    -17.68775701	     31.19132629	     56.43357289	     40.41202383	      0.00000000	      0.00000000
      2.53500000	    -16.15994300	     -2.55703972	     -0.79311644	      0.10822487	      1.10506985	     -0.25225525	      0.00000000	      0.50000000	      0.00000000	      0.25000000	     84.43660797	      0.02769643	      1.36660573	     93.33637280	      1.62902702	     22.17048033	    -15.47040917	      0.00000000	      0.00000000	     48.80913355	     -3.02860136	      6.29496056	     56.63678951	      0.98849845	    -14.91189525	    -20.73919430	      0.00000000	      0.00000000	    -64.36889411	      4.09380744	      2.10631788	     89.38869557	    -11.65777512	     29.10476526	     57.12020676	     42.66314256	      0.00000000	      0.00000000	     87.68221869	    -17.89882982	     30.85901260	     57.18146854	     40.57147540	      0.00000000	      0.00000000
      2.54000000	    -16.06656433	     -2.40271909	     -0.75017540	      0.10815949	      1.10423348	     -0.25288270	      0.00000000	      0.50000000	      0.00000000	      0.25000000	     83.72546989	     -0.03075140	      1.47812962	     91.68938801	      1.60028171	     22.10982191	    -15.60026761	      0.00000000	      0.00000000	     49.24593106	     -2.69387659	      6.21065757	     58.55099286	      1.02190761	    -14.00558533	    -21.56273325	      0.00000000	      0.00000000	    -64.51672977	      4.15161343	      1.94746648	     89.40036248	    -11.63984131	     29.12113314	     57.32431079	     42.64850832	      0.00000000	      0.00000000	     87.69765320	    -17.95328553	     30.77419908	     57.29493689	     40.59595708	      0.00000000	      0.00000000
